<svg xmlns="http://www.w3.org/2000/svg" fill="none" viewBox="0 0 256 256" id="Jwt-Icon--Streamline-Svg-Logos" height="256" width="256">
  <desc>
    Jwt Icon Streamline Icon: https://streamlinehq.com
  </desc>
  <path fill="#ffffff" d="M146.92613333333333 70.096 146.67546666666667 2.6666666666666665h-37.599999999999994l0.25066666666666665 67.42933333333333 18.799999999999997 25.818666666666665 18.799999999999997 -25.818666666666665Z" stroke-width="2.6667"></path>
  <path fill="#ffffff" d="M109.32693333333333 185.65359999999998v67.67999999999999h37.599999999999994v-67.67999999999999l-18.799999999999997 -25.818666666666665 -18.799999999999997 25.818666666666665Z" stroke-width="2.6667"></path>
  <path fill="#00f2e6" d="m146.92453333333333 185.65333333333334 39.605333333333334 54.64533333333333 30.330666666666666 -22.058666666666667 -39.605333333333334 -54.64533333333333 -30.330666666666666 -9.776V185.65333333333334Z" stroke-width="2.6667"></path>
  <path fill="#00f2e6" d="M109.32586666666666 70.09573333333333 69.46986666666666 15.450533333333333l-30.330666666666666 22.058533333333333 39.605333333333334 54.64533333333333 30.581333333333333 9.776v-31.834666666666667Z" stroke-width="2.6667"></path>
  <path fill="#00b9f1" d="m78.74426666666666 92.15439999999998 -64.17063999999999 -20.80533333333333 -11.530666666666665 35.59466666666667 64.17063999999999 21.055999999999997 30.330666666666666 -10.026666666666666 -18.799999999999997 -25.818666666666665Z" stroke-width="2.6667"></path>
  <path fill="#00b9f1" d="m158.45573333333334 137.77599999999998 18.799999999999997 25.818666666666665 64.17066666666666 20.80533333333333 11.530666666666665 -35.59466666666667L188.7864 128l-30.330666666666666 9.776Z" stroke-width="2.6667"></path>
  <path fill="#d63aff" d="m188.7864 127.99973333333332 64.17066666666666 -21.055999999999997 -11.530666666666665 -35.59466666666667 -64.17066666666666 20.80533333333333 -18.799999999999997 25.818666666666665 30.330666666666666 10.026666666666666Z" stroke-width="2.6667"></path>
  <path fill="#d63aff" d="M67.2136 128 3.04296 148.80533333333332l11.530666666666665 35.59466666666667 64.17063999999999 -20.80533333333333 18.799999999999997 -25.818666666666665L67.2136 128Z" stroke-width="2.6667"></path>
  <path fill="#fb015b" d="M78.74453333333332 163.59466666666665 39.139199999999995 218.24l30.330666666666666 22.058666666666667 39.855999999999995 -54.64533333333333V153.81866666666667l-30.581333333333333 9.776Z" stroke-width="2.6667"></path>
  <path fill="#fb015b" d="m177.25519999999997 92.15439999999998 39.605333333333334 -54.64533333333333 -30.330666666666666 -22.058533333333333 -39.605333333333334 54.645199999999996v31.834666666666667l30.330666666666666 -9.776Z" stroke-width="2.6667"></path>
</svg>